<?xml version="1.0" encoding="UTF-8"?>
<svg version="1.1" xmlns="http://www.w3.org/2000/svg" width="308" height="302">
<path d="M0 0 C41.07765113 -0.82985154 78.75849442 15.60271242 108.37109375 43.62109375 C126.4330184 61.46037526 139.07522066 84.44767713 146.15625 108.6875 C146.52592896 109.94469849 146.52592896 109.94469849 146.90307617 111.22729492 C150.65753851 124.65796575 151.17311001 137.6034724 151.03125 151.4375 C151.02119213 153.16080204 151.01207128 154.88410982 151.00390625 156.60742188 C150.98385503 160.78008125 150.94520429 164.95247678 150.90625 169.125 C135.22494375 170.03795095 119.59843311 170.26868 103.89306641 170.25439453 C101.3527626 170.25575304 98.812459 170.25753548 96.27215576 170.25970459 C90.14383748 170.26375722 84.01553534 170.26321135 77.88721688 170.26029195 C72.90167155 170.25801686 67.91612965 170.25773442 62.93058395 170.25881577 C62.21616616 170.258969 61.50174837 170.25912223 60.76568156 170.25928011 C59.31361974 170.25959989 57.86155793 170.2599241 56.40949611 170.2602527 C42.85755458 170.26309074 29.30561986 170.25984627 15.75367944 170.25445233 C4.1585368 170.24998003 -7.43659582 170.250767 -19.03173828 170.25537109 C-32.55047095 170.2607366 -46.06919769 170.26282225 -59.58793128 170.25975883 C-61.03228036 170.25944033 -62.47662945 170.25912596 -63.92097855 170.25881577 C-64.63134179 170.25866149 -65.34170504 170.25850721 -66.07359444 170.25834826 C-71.048641 170.25748946 -76.02368374 170.25893206 -80.99872971 170.26129532 C-87.7048008 170.2644114 -94.41085021 170.26215671 -101.11692047 170.25640106 C-103.56817468 170.25508596 -106.01943049 170.25544619 -108.47068405 170.25766373 C-120.71923293 170.26771791 -132.88646535 170.2172274 -145.09375 169.125 C-145.93280471 127.21099009 -145.93280471 127.21099009 -141.09375 111.125 C-140.87944336 110.36960937 -140.66513672 109.61421875 -140.44433594 108.8359375 C-137.2262232 97.63109664 -132.71643944 87.31998634 -127.09375 77.125 C-126.74441406 76.48433594 -126.39507812 75.84367187 -126.03515625 75.18359375 C-120.7120173 65.53174839 -114.42567851 57.32738578 -107.09375 49.125 C-105.86440035 47.66682091 -104.63520622 46.20851068 -103.40625 44.75 C-80.62235093 19.00365543 -43.76959559 3.20643655 -9.90625 0.4375 C-6.60476684 0.25904145 -3.30351242 0.13347525 0 0 Z " fill="#16395F" transform="translate(150.09375,1.875)"/>
<path d="M0 0 C0.99428304 -0.00322445 1.98856608 -0.00644889 3.01297891 -0.00977105 C4.11334501 -0.00822245 5.21371112 -0.00667385 6.34742165 -0.00507832 C7.51012066 -0.00734387 8.67281966 -0.00960943 9.87075198 -0.01194364 C13.10796995 -0.01719606 16.34515319 -0.01792559 19.5823741 -0.01674926 C23.06984134 -0.01654578 26.5573002 -0.02205898 30.04476357 -0.02680683 C36.8811948 -0.03512552 43.71761742 -0.03786223 50.55405329 -0.03841921 C56.10936988 -0.03889381 61.66468362 -0.04094577 67.21999931 -0.04411983 C82.95911741 -0.05292989 98.69822867 -0.05753869 114.43734924 -0.05678936 C115.28646128 -0.0567494 116.13557332 -0.05670945 117.01041603 -0.05666828 C117.860561 -0.0566274 118.71070596 -0.05658652 119.5866129 -0.0565444 C133.36719636 -0.05613787 147.14775252 -0.06570814 160.92832808 -0.07980665 C175.06712782 -0.09415787 189.20591423 -0.10107752 203.34472144 -0.10021287 C211.28699243 -0.09988046 219.2292348 -0.1026469 227.17149925 -0.11339092 C233.933525 -0.12247948 240.69550915 -0.12468478 247.45753835 -0.1178815 C250.90913109 -0.11460788 254.36064393 -0.11458976 257.81222916 -0.12323475 C261.55051348 -0.1309007 265.28858557 -0.1263457 269.02686501 -0.11860371 C270.12276966 -0.12374727 271.21867432 -0.12889083 272.34778821 -0.13419026 C273.84703602 -0.12729207 273.84703602 -0.12729207 275.37657166 -0.12025452 C276.23973098 -0.12047188 277.10289031 -0.12068925 277.99220598 -0.12091321 C280.50627879 0.1492859 282.14264442 0.86476997 284.31412697 2.12863445 C283.67208591 5.90012373 283.02484522 9.67070237 282.37662697 13.44113445 C282.19422462 14.51298992 282.01182228 15.58484539 281.82389259 16.68918133 C281.6466465 17.71720867 281.46940041 18.74523602 281.28678322 19.8044157 C281.12444191 20.75227947 280.9621006 21.70014324 280.79483986 22.67673016 C280.31412697 25.12863445 280.31412697 25.12863445 279.31412697 28.12863445 C243.69485313 28.17437984 208.07558443 28.20963735 172.45628728 28.23076511 C168.25419668 28.23326662 164.05210615 28.23585526 159.85001564 28.23849773 C158.59513783 28.23928467 158.59513783 28.23928467 157.31490896 28.24008749 C143.7566207 28.2487978 130.19834934 28.2645712 116.64007112 28.28294004 C102.7352551 28.30162172 88.83044795 28.3127475 74.9256199 28.31681144 C66.34077675 28.31956011 57.75598138 28.3282516 49.17115293 28.34446739 C43.28979312 28.3550129 37.40845814 28.35824062 31.52708956 28.35563721 C28.13031315 28.35435211 24.73362041 28.35636673 21.33685875 28.3670454 C17.65942909 28.3769295 13.98220735 28.37462727 10.30477333 28.36914349 C8.68368283 28.37788201 8.68368283 28.37788201 7.02984303 28.38679707 C6.04851913 28.38281497 5.06719522 28.37883288 4.05613422 28.37473011 C2.78198266 28.37586927 2.78198266 28.37586927 1.48209065 28.37703145 C-0.68587303 28.12863445 -0.68587303 28.12863445 -3.68587303 26.12863445 C-4.40950584 24.03732586 -4.40950584 24.03732586 -4.88899803 21.48019695 C-5.06431053 20.5572282 -5.23962303 19.63425945 -5.42024803 18.68332195 C-5.67548241 17.23312664 -5.67548241 17.23312664 -5.93587303 15.75363445 C-6.12149803 14.79457195 -6.30712303 13.83550945 -6.49837303 12.84738445 C-8.01143916 4.61722173 -8.01143916 4.61722173 -6.68587303 1.12863445 C-4.25612177 -0.08624118 -2.71591917 0.0022173 0 0 Z " fill="#1B3D61" transform="translate(13.685873031616211,179.87136554718018)"/>
<path d="M0 0 C0.8219682 0.00291284 1.64393639 0.00582568 2.49081272 0.00882679 C3.35738024 0.00797237 4.22394777 0.00711794 5.11677492 0.00623763 C8.04343087 0.00458016 10.9700305 0.01010853 13.89668125 0.01555592 C15.98547213 0.01583776 18.07426311 0.01568012 20.16305393 0.01511341 C25.8529045 0.01482531 31.54273419 0.02072401 37.23257989 0.02768737 C43.17167361 0.03391888 49.11076775 0.03452455 55.04986423 0.03571278 C66.30502998 0.03882669 77.56018607 0.04704089 88.81534755 0.05706227 C101.62528293 0.06822154 114.43521875 0.07373338 127.24515778 0.0787577 C153.60418334 0.08922346 179.96320031 0.10682406 206.32221836 0.12908131 C204.10076989 7.11898382 204.10076989 7.11898382 201.32221836 10.12908131 C200.66221836 10.12908131 200.00221836 10.12908131 199.32221836 10.12908131 C199.07214023 10.71560475 198.82206211 11.30212818 198.56440586 11.90642506 C197.15782203 14.423237 195.6452813 15.83774332 193.44721836 17.69158131 C192.43014805 18.5597649 192.43014805 18.5597649 191.39253086 19.44548756 C190.70932773 20.0010735 190.02612461 20.55665943 189.32221836 21.12908131 C188.76029002 21.65108711 188.19836168 22.1730929 187.61940521 22.71091706 C184.47351982 24.65302386 182.18281166 24.5038063 178.49691623 24.50330311 C177.81098957 24.50727752 177.1250629 24.51125192 176.41835058 24.51534677 C174.12055185 24.52496911 171.82336893 24.51315247 169.5255875 24.50139576 C167.87795638 24.50382378 166.23032673 24.50754319 164.58270115 24.51245838 C160.10745985 24.52187043 155.63243715 24.51243893 151.15721291 24.49912626 C146.47502666 24.48781529 141.79285123 24.49191904 137.11065525 24.49387318 C129.24632548 24.49475635 121.38208188 24.48367159 113.517775 24.46526295 C104.42575153 24.44410233 95.33385437 24.44058376 86.24181128 24.44682491 C77.49699976 24.45252041 68.75223273 24.44687023 60.00742763 24.43565136 C56.28545093 24.43100709 52.56350145 24.4301308 48.84152263 24.43223721 C44.45763775 24.43412136 40.07388134 24.4260064 35.69002575 24.41017681 C34.08118322 24.4059354 32.47232765 24.40508245 30.86348194 24.40786701 C28.66701517 24.41109175 26.47093151 24.40199983 24.27450413 24.38977772 C23.04541859 24.38772485 21.81633306 24.38567198 20.55000252 24.3835569 C14.31503195 23.89199744 10.75872211 21.11674332 6.32221836 16.94158131 C5.794025 16.45052906 5.26583164 15.95947682 4.72163242 15.4535442 C1.04016961 11.96599312 -2.06928379 8.50763127 -4.67778164 4.12908131 C-4.67778164 3.46908131 -4.67778164 2.80908131 -4.67778164 2.12908131 C-5.33778164 1.79908131 -5.99778164 1.46908131 -6.67778164 1.12908131 C-4.87296057 -0.67573976 -2.40261507 0.00646038 0 0 Z " fill="#1D3E62" transform="translate(51.67778164148331,256.8709186911583)"/>
<path d="M0 0 C0.80158962 0.00037972 1.60317923 0.00075944 2.42905945 0.00115067 C3.35066693 -0.00084038 4.27227441 -0.00283143 5.22180939 -0.00488281 C6.2461069 -0.00196997 7.2704044 0.00094287 8.32574123 0.00394398 C9.9441096 0.00266234 9.9441096 0.00266234 11.59517229 0.00135481 C15.24044003 -0.00030318 18.8856626 0.00522659 22.53092617 0.01067311 C25.13202581 0.01095493 27.73312553 0.01079733 30.33422512 0.0102306 C35.94964807 0.00970518 41.56505943 0.01285385 47.18047947 0.01846844 C55.29952386 0.02658102 63.41856263 0.02919841 71.53761064 0.03045643 C84.70888827 0.03264733 97.88015971 0.03930845 111.05143398 0.04875904 C123.84928523 0.05793217 136.6471348 0.06501349 149.44498867 0.06926686 C150.62744483 0.06966094 150.62744483 0.06966094 151.833789 0.07006299 C155.78831316 0.07136799 159.74283734 0.0726317 163.69736153 0.07387489 C196.52592078 0.08424869 229.35447245 0.10186804 262.18302578 0.1241985 C261.52533208 3.73460448 260.72010164 6.32542317 258.74552578 9.4366985 C258.09777187 10.48277272 258.09777187 10.48277272 257.43693203 11.54997975 C257.02314296 12.06947193 256.6093539 12.58896412 256.18302578 13.1241985 C255.52302578 13.1241985 254.86302578 13.1241985 254.18302578 13.1241985 C253.85302578 14.1141985 253.52302578 15.1041985 253.18302578 16.1241985 C172.00302578 16.1241985 90.82302578 16.1241985 7.18302578 16.1241985 C7.18302578 15.4641985 7.18302578 14.8041985 7.18302578 14.1241985 C6.52302578 14.1241985 5.86302578 14.1241985 5.18302578 14.1241985 C3.89396328 12.663261 3.89396328 12.663261 2.55802578 10.7491985 C2.11201015 10.12271412 1.66599453 9.49622975 1.20646328 8.850761 C0.18302578 7.1241985 0.18302578 7.1241985 0.18302578 5.1241985 C-0.47697422 5.1241985 -1.13697422 5.1241985 -1.81697422 5.1241985 C-2.37947422 3.1866985 -2.37947422 3.1866985 -2.81697422 1.1241985 C-1.81697422 0.1241985 -1.81697422 0.1241985 0 0 Z " fill="#1D3F62" transform="translate(21.816974222660065,220.8758015036583)"/>
<path d="M0 0 C1.48355736 0.24398781 1.48355736 0.24398781 2.99708557 0.49290466 C7.01409744 1.06356868 10.99492429 1.13394047 15.04663086 1.11352539 C15.81818512 1.11367142 16.58973938 1.11381744 17.38467407 1.1139679 C19.91142683 1.11327638 22.43810402 1.10551994 24.96484375 1.09765625 C26.72603821 1.09578936 28.48723318 1.09436674 30.24842834 1.09336853 C34.86631727 1.08956467 39.48417436 1.07975273 44.10205078 1.06866455 C48.82128468 1.05840446 53.54052377 1.05386108 58.25976562 1.04882812 C67.50652435 1.03812842 76.75325952 1.02107778 86 1 C86 1.99 86 2.98 86 4 C79.84998719 7.47328612 74.55018779 8.93235605 67.5625 9.75 C66.56895508 9.87141357 65.57541016 9.99282715 64.55175781 10.11791992 C42.85674757 12.52565263 18.15752072 13.48163452 -2 4 C-1.34 2.68 -0.68 1.36 0 0 Z " fill="#1B3958" transform="translate(110,288)"/>
<path d="M0 0 C0.99627409 -0.00521549 1.99254818 -0.01043099 3.01901239 -0.01580453 C4.11646565 -0.01134309 5.21391891 -0.00688164 6.34462833 -0.002285 C7.50818177 -0.00540498 8.6717352 -0.00852497 9.87054783 -0.01173949 C13.10554682 -0.01835124 16.34039654 -0.01595166 19.57539189 -0.00976706 C23.06216403 -0.00525307 26.54891555 -0.01222111 30.03568363 -0.0177269 C36.86864836 -0.02663412 43.70156923 -0.02469291 50.5345357 -0.01890162 C56.08697038 -0.01438998 61.63939274 -0.01377006 67.19182873 -0.01594925 C67.98124532 -0.01625572 68.77066191 -0.01656218 69.58400022 -0.01687793 C71.1875577 -0.01751737 72.79111517 -0.01816579 74.39467264 -0.01882312 C89.4422215 -0.0245304 104.48974601 -0.01796248 119.53729088 -0.00722238 C132.45453263 0.00171176 145.37173843 0.00016299 158.28897953 -0.00905991 C173.28010703 -0.0197585 188.27121316 -0.02397921 203.26234394 -0.01783538 C204.86040055 -0.01719826 206.45845717 -0.01656952 208.05651379 -0.01594925 C209.23599921 -0.01548642 209.23599921 -0.01548642 210.43931262 -0.01501425 C215.98588585 -0.01328594 221.53244555 -0.01620536 227.07901669 -0.02090836 C233.83736297 -0.02651271 240.59566278 -0.02501022 247.35400372 -0.01434687 C250.80357503 -0.00908386 254.25306881 -0.00704404 257.70263958 -0.01364517 C261.4386867 -0.01908155 265.17451336 -0.01228948 268.9105463 -0.002285 C270.00576884 -0.00674645 271.10099138 -0.01120789 272.22940248 -0.01580453 C273.22828432 -0.01058903 274.22716616 -0.00537354 275.25631714 0 C276.11893439 0.0003247 276.98155165 0.00064941 277.87030882 0.00098395 C280.19107914 0.25168228 280.19107914 0.25168228 284.19107914 2.25168228 C283.53107914 6.21168228 282.87107914 10.17168228 282.19107914 14.25168228 C281.86107914 14.25168228 281.53107914 14.25168228 281.19107914 14.25168228 C281.1304932 13.54140884 281.06990726 12.83113541 281.00748539 12.09933853 C280.8818018 10.72068619 280.8818018 10.72068619 280.75357914 9.31418228 C280.6723682 8.39765884 280.59115726 7.48113541 280.50748539 6.53683853 C280.43062938 4.29008496 280.43062938 4.29008496 279.19107914 3.25168228 C277.69783902 3.1539969 276.19997937 3.12612745 274.70354748 3.12584114 C273.72805576 3.12323339 272.75256405 3.12062565 271.74751198 3.11793888 C270.66300566 3.1201696 269.57849934 3.12240032 268.46112919 3.12469864 C266.74793061 3.12235865 266.74793061 3.12235865 265.00012195 3.11997139 C261.81571961 3.11665823 258.63135497 3.11787052 255.44695354 3.12095761 C252.01811341 3.12320997 248.58927858 3.11973289 245.16043949 3.11697769 C238.43716913 3.11251894 231.71390991 3.11349701 224.99063911 3.11639033 C219.52777699 3.11864433 214.064918 3.1189569 208.60205555 3.11786652 C207.82595606 3.11771328 207.04985657 3.11756005 206.25023892 3.11740217 C204.67381764 3.11708246 203.09739637 3.11675825 201.5209751 3.11642958 C186.72002611 3.11357439 171.9190833 3.11686223 157.11813532 3.12222995 C144.40921115 3.12669626 131.70029611 3.12592355 118.99137211 3.12131119 C104.24821379 3.11596309 89.50506089 3.11385094 74.76190174 3.11692345 C73.19051258 3.11724201 71.61912342 3.11755638 70.04773426 3.11786652 C68.88788363 3.11809793 68.88788363 3.11809793 67.70460168 3.11833402 C62.24725395 3.11919859 56.78990965 3.11773753 51.33256245 3.11538696 C44.68321342 3.11258608 38.0338762 3.11333328 31.38452853 3.11866771 C27.98979663 3.12130107 24.59508444 3.12231594 21.20035267 3.11901855 C17.52521397 3.11630355 13.85013145 3.1196926 10.17499638 3.12469864 C9.0949515 3.12246792 8.01490662 3.1202372 6.90213311 3.11793888 C5.9214259 3.12054662 4.94071869 3.12315437 3.93029308 3.12584114 C3.08140078 3.12600349 2.23250847 3.12616585 1.35789216 3.12633312 C-0.99191143 3.16772878 -0.99191143 3.16772878 -3.80892086 4.25168228 C-4.13892086 7.55168228 -4.46892086 10.85168228 -4.80892086 14.25168228 C-5.13892086 14.25168228 -5.46892086 14.25168228 -5.80892086 14.25168228 C-6.46892086 10.29168228 -7.12892086 6.33168228 -7.80892086 2.25168228 C-4.5758099 0.09627498 -3.72498055 0.00140241 0 0 Z " fill="#5F7082" transform="translate(13.808920860290527,179.74831771850586)"/>
<path d="M0 0 C0.80158962 0.00037972 1.60317923 0.00075944 2.42905945 0.00115067 C3.35066693 -0.00084038 4.27227441 -0.00283143 5.22180939 -0.00488281 C6.2461069 -0.00196997 7.2704044 0.00094287 8.32574123 0.00394398 C9.9441096 0.00266234 9.9441096 0.00266234 11.59517229 0.00135481 C15.24044003 -0.00030318 18.8856626 0.00522659 22.53092617 0.01067311 C25.13202581 0.01095493 27.73312553 0.01079733 30.33422512 0.0102306 C35.94964807 0.00970518 41.56505943 0.01285385 47.18047947 0.01846844 C55.29952386 0.02658102 63.41856263 0.02919841 71.53761064 0.03045643 C84.70888827 0.03264733 97.88015971 0.03930845 111.05143398 0.04875904 C123.84928523 0.05793217 136.6471348 0.06501349 149.44498867 0.06926686 C150.62744483 0.06966094 150.62744483 0.06966094 151.833789 0.07006299 C155.78831316 0.07136799 159.74283734 0.0726317 163.69736153 0.07387489 C196.52592078 0.08424869 229.35447245 0.10186804 262.18302578 0.1241985 C261.44607063 4.63037215 259.92345329 7.44174902 257.18302578 11.1241985 C256.85302578 11.1241985 256.52302578 11.1241985 256.18302578 11.1241985 C255.87052578 8.9366985 255.87052578 8.9366985 256.18302578 6.1241985 C257.83302578 4.4741985 259.48302578 2.8241985 261.18302578 1.1241985 C174.72302578 1.1241985 88.26302578 1.1241985 -0.81697422 1.1241985 C-0.48697422 2.4441985 -0.15697422 3.7641985 0.18302578 5.1241985 C-0.47697422 5.1241985 -1.13697422 5.1241985 -1.81697422 5.1241985 C-2.37947422 3.1866985 -2.37947422 3.1866985 -2.81697422 1.1241985 C-1.81697422 0.1241985 -1.81697422 0.1241985 0 0 Z " fill="#677787" transform="translate(21.816974222660065,220.8758015036583)"/>
<path d="M0 0 C0.33 0 0.66 0 1 0 C1.8886833 5.31057459 2.13355881 10.39885945 2.09765625 15.77734375 C2.09553383 16.99436729 2.09553383 16.99436729 2.09336853 18.23597717 C2.08781357 20.80319047 2.07526967 23.37031348 2.0625 25.9375 C2.05747917 27.68814977 2.05291729 29.43880093 2.04882812 31.18945312 C2.03871392 35.45967087 2.01976202 39.72981748 2 44 C-16.66208904 45.22211849 -35.32336194 45.1482901 -54.01512289 45.1343255 C-58.5334488 45.13175989 -63.05177287 45.1341504 -67.57009888 45.13571167 C-75.13609183 45.13751865 -82.70207495 45.13516326 -90.26806641 45.13037109 C-99.00080962 45.12490365 -107.73352956 45.12671495 -116.46627223 45.1321975 C-124.00220115 45.13673789 -131.53812309 45.13737546 -139.07405293 45.13475883 C-143.55924876 45.1332047 -148.04443364 45.13297912 -152.52962875 45.13629532 C-156.73395378 45.13918846 -160.93824871 45.13717185 -165.1425705 45.13140106 C-166.68125229 45.1300824 -168.21993663 45.13045237 -169.7586174 45.13266373 C-171.8635974 45.13540974 -173.96848184 45.13195248 -176.07345581 45.12698364 C-177.24912046 45.12660662 -178.42478512 45.12622959 -179.63607597 45.12584114 C-183.14985285 44.99439415 -186.53022744 44.55666705 -190 44 C-190 43.67 -190 43.34 -190 43 C-127.3 43 -64.6 43 0 43 C-0.33 40.36 -0.66 37.72 -1 35 C-1.13313984 32.32002388 -1.08650397 29.6884447 -1.0625 27 C-1.05798828 26.32066406 -1.05347656 25.64132813 -1.04882812 24.94140625 C-1.0372283 23.29423126 -1.01930199 21.64710274 -1 20 C-0.34 20 0.32 20 1 20 C0.9278125 19.39414063 0.855625 18.78828125 0.78125 18.1640625 C0.1075063 12.08165405 -0.11713363 6.11697862 0 0 Z " fill="#56667C" transform="translate(299,127)"/>
<path d="M0 0 C0.66033234 0.16109253 1.32066467 0.32218506 2.00100708 0.48815918 C5.67158232 1.11461956 9.27219555 1.16840197 12.98388672 1.18945312 C13.77316559 1.19774643 14.56244446 1.20603973 15.37564087 1.21458435 C17.08399366 1.23193504 18.79236958 1.24711528 20.50075912 1.26036072 C23.20834125 1.28147343 25.91580821 1.30849044 28.62332153 1.33703613 C34.37383624 1.39661168 40.12440537 1.44880741 45.875 1.5 C52.5339293 1.55935791 59.19280183 1.62177128 65.85162735 1.69187927 C68.51205853 1.71832623 71.17249588 1.73921856 73.83297729 1.7598877 C75.47442904 1.77650283 77.1158782 1.79337572 78.75732422 1.81054688 C79.85793182 1.8168235 79.85793182 1.8168235 80.98077393 1.82322693 C85.4216494 1.87674429 89.62929545 2.28518623 94 3 C94 3.33 94 3.66 94 4 C82.61259594 4.04634002 71.22521432 4.08187773 59.83773518 4.10362434 C54.55007408 4.1140616 49.26247749 4.12821985 43.97485352 4.15087891 C38.87203016 4.1726092 33.76926887 4.18456906 28.66640282 4.18975449 C26.71955577 4.19344989 24.77271212 4.20066605 22.82589149 4.21146011 C20.09910364 4.22597741 17.37257224 4.22797783 14.64575195 4.22705078 C13.43841904 4.23783661 13.43841904 4.23783661 12.20669556 4.24884033 C8.05474791 4.23356564 4.6785343 4.02070539 1 2 C0.67 1.34 0.34 0.68 0 0 Z " fill="#627486" transform="translate(63,277)"/>
<path d="M0 0 C0.80566406 0.00322266 1.61132812 0.00644531 2.44140625 0.00976562 C3.70404297 0.02233398 3.70404297 0.02233398 4.9921875 0.03515625 C5.84167969 0.03966797 6.69117188 0.04417969 7.56640625 0.04882812 C9.66669659 0.06062751 11.7669508 0.07856319 13.8671875 0.09765625 C13.8671875 1.08765625 13.8671875 2.07765625 13.8671875 3.09765625 C14.9190625 2.60265625 14.9190625 2.60265625 15.9921875 2.09765625 C19.12721866 1.00721063 21.57281932 0.94442982 24.8671875 1.09765625 C22.02871136 3.48061936 19.98848136 4.53255948 16.32421875 5.046875 C15.42727295 5.17288086 14.53032715 5.29888672 13.60620117 5.42871094 C12.64045166 5.54633789 11.67470215 5.66396484 10.6796875 5.78515625 C9.67462158 5.91180664 8.66955566 6.03845703 7.6340332 6.16894531 C-7.21248641 7.86830783 -22.29315424 7.85141551 -37.1328125 6.09765625 C-37.1328125 5.76765625 -37.1328125 5.43765625 -37.1328125 5.09765625 C-26.5728125 4.76765625 -16.0128125 4.43765625 -5.1328125 4.09765625 C-5.4628125 3.10765625 -5.7928125 2.11765625 -6.1328125 1.09765625 C-3.8362755 -0.05061225 -2.54968083 -0.0179555 0 0 Z " fill="#49627A" transform="translate(167.1328125,291.90234375)"/>
<path d="M0 0 C1.48355736 0.24398781 1.48355736 0.24398781 2.99708557 0.49290466 C7.01409744 1.06356868 10.99492429 1.13394047 15.04663086 1.11352539 C15.81818512 1.11367142 16.58973938 1.11381744 17.38467407 1.1139679 C19.91142683 1.11327638 22.43810402 1.10551994 24.96484375 1.09765625 C26.72603821 1.09578936 28.48723318 1.09436674 30.24842834 1.09336853 C34.86631727 1.08956467 39.48417436 1.07975273 44.10205078 1.06866455 C48.82128468 1.05840446 53.54052377 1.05386108 58.25976562 1.04882812 C67.50652435 1.03812842 76.75325952 1.02107778 86 1 C86 1.99 86 2.98 86 4 C84.68 4.33 83.36 4.66 82 5 C82 4.67 82 4.34 82 4 C57.25 3.67 32.5 3.34 7 3 C8.65587522 6.16948699 8.65587522 6.16948699 11.3828125 6.73046875 C12.28773437 6.88128906 13.19265625 7.03210938 14.125 7.1875 C15.03507812 7.34605469 15.94515625 7.50460937 16.8828125 7.66796875 C17.93082031 7.83232422 17.93082031 7.83232422 19 8 C19 8.33 19 8.66 19 9 C11.18202122 9.76646851 5.12033152 7.03916589 -2 4 C-1.34 2.68 -0.68 1.36 0 0 Z " fill="#788F9F" transform="translate(110,288)"/>
<path d="M0 0 C0.33 0 0.66 0 1 0 C1.8886833 5.31057459 2.13355881 10.39885945 2.09765625 15.77734375 C2.0962413 16.58869278 2.09482635 17.40004181 2.09336853 18.23597717 C2.08781357 20.80319047 2.07526967 23.37031348 2.0625 25.9375 C2.05747917 27.68814977 2.05291729 29.43880093 2.04882812 31.18945312 C2.03785893 35.4596697 2.02062582 39.72981959 2 44 C-0.64 44 -3.28 44 -6 44 C-6 43.67 -6 43.34 -6 43 C-4.02 43 -2.04 43 0 43 C-0.165 41.989375 -0.33 40.97875 -0.5 39.9375 C-1.34762407 33.33558292 -1.07784918 26.6431304 -1 20 C-0.34 20 0.32 20 1 20 C0.89171875 19.09121094 0.89171875 19.09121094 0.78125 18.1640625 C0.1075063 12.08165405 -0.11713363 6.11697862 0 0 Z " fill="#4A5E72" transform="translate(299,127)"/>
<path d="M0 0 C0 0.33 0 0.66 0 1 C-15.32410591 2.2418957 -30.63592172 2.101915 -46 2 C-46 1.67 -46 1.34 -46 1 C-30.43914341 -0.73760313 -15.6374247 -1.43321732 0 0 Z " fill="#3D4D5F" transform="translate(173,3)"/>
<path d="M0 0 C1.25159912 0.00523682 2.50319824 0.01047363 3.79272461 0.01586914 C4.78942421 0.01799156 4.78942421 0.01799156 5.80625916 0.02015686 C7.93590735 0.02577021 10.06545175 0.03832485 12.19506836 0.05102539 C13.63582205 0.05603868 15.07657739 0.06060188 16.51733398 0.06469727 C20.05577938 0.07574394 23.59416375 0.09301747 27.13256836 0.11352539 C27.13256836 0.44352539 27.13256836 0.77352539 27.13256836 1.11352539 C19.21256836 1.44352539 11.29256836 1.77352539 3.13256836 2.11352539 C4.57031126 9.20440695 4.57031126 9.20440695 8.25756836 14.11352539 C9.06581055 14.97977539 9.06581055 14.97977539 9.89038086 15.86352539 C10.30030273 16.27602539 10.71022461 16.68852539 11.13256836 17.11352539 C5.47208279 14.68225956 1.30720621 9.74247677 -1.17993164 4.17602539 C-1.40680664 3.49540039 -1.63368164 2.81477539 -1.86743164 2.11352539 C-2.52743164 1.78352539 -3.18743164 1.45352539 -3.86743164 1.11352539 C-2.86743164 0.11352539 -2.86743164 0.11352539 0 0 Z " fill="#728192" transform="translate(48.867431640625,256.886474609375)"/>
<path d="M0 0 C1.03047958 0.02361099 2.06095917 0.04722198 3.12266541 0.07154846 C6.38272178 0.14752924 9.64250015 0.23183199 12.90234375 0.31640625 C15.12563788 0.36969275 17.34894518 0.42243258 19.57226562 0.47460938 C24.99496002 0.60305445 30.41745138 0.73831486 35.83984375 0.87890625 C35.50984375 1.53890625 35.17984375 2.19890625 34.83984375 2.87890625 C28.13208834 2.90433342 21.42434545 2.92180554 14.71655273 2.93383789 C12.43627457 2.93885589 10.15599961 2.94567175 7.87573242 2.9543457 C4.59162606 2.96652232 1.30756238 2.97216 -1.9765625 2.9765625 C-3.49728111 2.98430443 -3.49728111 2.98430443 -5.04872131 2.99220276 C-10.19875346 2.99260776 -15.0857207 2.77366639 -20.16015625 1.87890625 C-20.16015625 1.54890625 -20.16015625 1.21890625 -20.16015625 0.87890625 C-13.36879758 -0.02762567 -6.84260635 -0.18845485 0 0 Z " fill="#667488" transform="translate(65.16015625,169.12109375)"/>
<path d="M0 0 C0.66 0.33 1.32 0.66 2 1 C1.375 3.375 1.375 3.375 0 6 C-4.00733365 7.9591409 -6.73358133 8.25482902 -11 7 C-11.165 7.61875 -11.33 8.2375 -11.5 8.875 C-13.90181375 12.27756949 -17.00162134 12.22612026 -21 13 C-17.43662761 8.85543586 -13.14500734 6.67254577 -8.375 4.1875 C-7.59898438 3.76791016 -6.82296875 3.34832031 -6.0234375 2.91601562 C-5.2809375 2.52478516 -4.5384375 2.13355469 -3.7734375 1.73046875 C-3.09716309 1.37364014 -2.42088867 1.01681152 -1.72412109 0.64916992 C-1.15516113 0.43494385 -0.58620117 0.22071777 0 0 Z " fill="#496079" transform="translate(92,15)"/>
<path d="M0 0 C0.33 0.66 0.66 1.32 1 2 C0.01 2.495 0.01 2.495 -1 3 C-1.33 3.99 -1.66 4.98 -2 6 C-3.77734375 7.60546875 -3.77734375 7.60546875 -5.9375 9.1875 C-6.64777344 9.71730469 -7.35804687 10.24710938 -8.08984375 10.79296875 C-10 12 -10 12 -12 12 C-12.33 12.99 -12.66 13.98 -13 15 C-15.27208411 16.51472274 -17.56019185 17.78009593 -20 19 C-18.41370889 14.89885714 -15.44943144 12.36388131 -12.25 9.5 C-11.73695312 9.02691406 -11.22390625 8.55382813 -10.6953125 8.06640625 C-7.32122544 5.0059906 -3.84579651 2.44104449 0 0 Z " fill="#45596D" transform="translate(65,31)"/>
<path d="M0 0 C2.31 0.33 4.62 0.66 7 1 C7.12375 1.78375 7.2475 2.5675 7.375 3.375 C8.7292184 6.19101512 8.7292184 6.19101512 11.359375 6.77734375 C13.90202904 7.26935449 16.43002979 7.68230996 19 8 C19 8.33 19 8.66 19 9 C11.18202122 9.76646851 5.12033152 7.03916589 -2 4 C-1.34 2.68 -0.68 1.36 0 0 Z " fill="#5E6F7E" transform="translate(110,288)"/>
<path d="M0 0 C0.99 0 1.98 0 3 0 C3 0.99 3 1.98 3 3 C3.70125 2.67 4.4025 2.34 5.125 2 C8.26003116 0.90955438 10.70563182 0.84677357 14 1 C10.14591684 5.03812645 5.46956415 4.55257774 0.25 4.6875 C-0.63816406 4.72166016 -1.52632812 4.75582031 -2.44140625 4.79101562 C-4.62747803 4.87328714 -6.81315951 4.94250172 -9 5 C-9.33 4.34 -9.66 3.68 -10 3 C-9.36191406 2.95101563 -8.72382813 2.90203125 -8.06640625 2.8515625 C-7.24011719 2.77679688 -6.41382813 2.70203125 -5.5625 2.625 C-4.73878906 2.55539062 -3.91507813 2.48578125 -3.06640625 2.4140625 C-2.38449219 2.27742188 -1.70257813 2.14078125 -1 2 C-0.67 1.34 -0.34 0.68 0 0 Z " fill="#364E68" transform="translate(178,292)"/>
<path d="M0 0 C1.485 0.99 1.485 0.99 3 2 C5.06910593 2.02749478 5.06910593 2.02749478 7.1875 1.625 C9.0746875 1.315625 9.0746875 1.315625 11 1 C11 1.66 11 2.32 11 3 C5.52380952 8 5.52380952 8 3 8 C2.67 7.01 2.34 6.02 2 5 C1.01 4.67 0.02 4.34 -1 4 C-0.67 2.68 -0.34 1.36 0 0 Z " fill="#234466" transform="translate(234,272)"/>
<path d="M0 0 C1.98 0 3.96 0 6 0 C5.814375 0.928125 5.62875 1.85625 5.4375 2.8125 C4.75876119 6.01343771 4.75876119 6.01343771 6 9 C7.49985609 10.66710346 7.49985609 10.66710346 9 12 C8.01 12.33 7.02 12.66 6 13 C2.57546571 8.60957142 0.41778991 5.7097955 0 0 Z " fill="#364C64" transform="translate(21,222)"/>
<path d="M0 0 C3.96 0 7.92 0 12 0 C10.84414715 3.91211733 9.64465038 6.8745041 7 10 C6.34 9.67 5.68 9.34 5 9 C5.33 8.236875 5.66 7.47375 6 6.6875 C7.17436686 4.00930865 7.17436686 4.00930865 7 1 C4.69 1 2.38 1 0 1 C0 0.67 0 0.34 0 0 Z " fill="#697989" transform="translate(246,257)"/>
<path d="M0 0 C5.52677733 -0.19392201 9.75614911 0.2520497 15 2 C15 2.33 15 2.66 15 3 C10.05 3 5.1 3 0 3 C0 2.01 0 1.02 0 0 Z " fill="#556A80" transform="translate(222,278)"/>
<path d="M0 0 C0.33 0.99 0.66 1.98 1 3 C-0.328125 5.26171875 -0.328125 5.26171875 -2.25 7.6875 C-2.87390625 8.49574219 -3.4978125 9.30398437 -4.140625 10.13671875 C-5.06101563 11.05904297 -5.06101563 11.05904297 -6 12 C-6.99 12 -7.98 12 -9 12 C-7.55575365 8.76138697 -5.74227753 6.38030837 -3.375 3.75 C-2.74335937 3.04359375 -2.11171875 2.3371875 -1.4609375 1.609375 C-0.97882812 1.07828125 -0.49671875 0.5471875 0 0 Z " fill="#3C5367" transform="translate(44,50)"/>
<path d="M0 0 C0.33 0 0.66 0 1 0 C1.19294408 4.82360189 0.75747614 8.49646738 -1 13 C-3.31 13 -5.62 13 -8 13 C-8 12.67 -8 12.34 -8 12 C-6.35 12 -4.7 12 -3 12 C-2.67 9.69 -2.34 7.38 -2 5 C-1.34 5 -0.68 5 0 5 C0 3.35 0 1.7 0 0 Z " fill="#3E5368" transform="translate(294,194)"/>
<path d="M0 0 C0.66 0.99 1.32 1.98 2 3 C1.34 3 0.68 3 0 3 C-0.66 6.96 -1.32 10.92 -2 15 C-2.99 15.33 -3.98 15.66 -5 16 C-4.39363767 10.23955788 -2.24341721 5.27985631 0 0 Z " fill="#495D7B" transform="translate(16,93)"/>
<path d="M0 0 C0.33 0.66 0.66 1.32 1 2 C5.95 2 10.9 2 16 2 C16 2.33 16 2.66 16 3 C13.37549914 3.22119939 10.75129514 3.42746669 8.125 3.625 C7.37863281 3.68945312 6.63226563 3.75390625 5.86328125 3.8203125 C3.9129953 3.96087365 1.95530533 3.98759849 0 4 C-0.66 3.34 -1.32 2.68 -2 2 C-1.34 2 -0.68 2 0 2 C0 1.34 0 0.68 0 0 Z " fill="#41546C" transform="translate(13,204)"/>
<path d="M0 0 C1.04750157 3.33152755 1.00335257 6.0975502 0.6875 9.5625 C0.60886719 10.51253906 0.53023437 11.46257812 0.44921875 12.44140625 C0 15 0 15 -2 18 C-2.33 17.67 -2.66 17.34 -3 17 C-2.85341378 11.11399958 -1.81951217 5.57983731 0 0 Z " fill="#597285" transform="translate(10,110)"/>
<path d="M0 0 C2.31 0 4.62 0 7 0 C6.01 0.66 5.02 1.32 4 2 C3.41810734 4.42521494 3.41810734 4.42521494 3.3125 7.125 C3.24675781 8.03507813 3.18101563 8.94515625 3.11328125 9.8828125 C3.07589844 10.58148438 3.03851563 11.28015625 3 12 C2.67 12 2.34 12 2 12 C1.34 8.04 0.68 4.08 0 0 Z " fill="#506079" transform="translate(6,182)"/>
<path d="M0 0 C3.48749314 2.78999451 6.50157221 5.25235831 9 9 C8.67 9.66 8.34 10.32 8 11 C5.5 9.75 5.5 9.75 3 8 C3 6.68 3 5.36 3 4 C2.01 4 1.02 4 0 4 C0 2.68 0 1.36 0 0 Z " fill="#41556C" transform="translate(263,52)"/>
<path d="M0 0 C7.57142857 4 7.57142857 4 10 8 C3.73913043 6.95652174 3.73913043 6.95652174 1 5 C0.25 2.375 0.25 2.375 0 0 Z " fill="#3D536B" transform="translate(240,31)"/>
<path d="M0 0 C0 0.66 0 1.32 0 2 C-5.60563042 2.82622671 -10.42289352 3.06795656 -16 2 C-16 1.67 -16 1.34 -16 1 C-10.62915894 0.31798844 -5.41499441 -0.11521265 0 0 Z " fill="#4E6078" transform="translate(61,169)"/>
<path d="M0 0 C2.40034102 3.60051153 4.32187705 6.96144535 3.625 11.375 C3.41875 11.91125 3.2125 12.4475 3 13 C-0.09902323 9.90097677 0.0101421 7.60852615 -0.0625 3.25 C-0.041875 2.1775 -0.02125 1.105 0 0 Z " fill="#506577" transform="translate(292,100)"/>
<path d="M0 0 C4.3177458 0.50797009 8.03302114 1.19682779 12 3 C12 3.33 12 3.66 12 4 C3.73913043 4.15886288 3.73913043 4.15886288 1 3 C0.67 2.01 0.34 1.02 0 0 Z " fill="#52657A" transform="translate(192,8)"/>
<path d="M0 0 C-4.10457614 2.98514628 -6.97745369 3.2954439 -12 3 C-8.61613364 -0.38386636 -4.56431325 -1.75550509 0 0 Z " fill="#566A7F" transform="translate(114,9)"/>
<path d="M0 0 C1.60495567 0.11442461 3.20898119 0.24194694 4.8125 0.375 C5.70582031 0.44460937 6.59914062 0.51421875 7.51953125 0.5859375 C10 1 10 1 13 3 C11.58376784 3.05447047 10.16691809 3.09300508 8.75 3.125 C7.96109375 3.14820313 7.1721875 3.17140625 6.359375 3.1953125 C3.79268059 2.9828378 2.2083933 2.28654105 0 1 C0 0.67 0 0.34 0 0 Z " fill="#526677" transform="translate(179,5)"/>
<path d="M0 0 C-1.77444972 2.24606427 -2.58352485 2.95081002 -5.48046875 3.29296875 C-6.37378906 3.25816406 -7.26710938 3.22335937 -8.1875 3.1875 C-9.08855469 3.16042969 -9.98960938 3.13335937 -10.91796875 3.10546875 C-11.94857422 3.05326172 -11.94857422 3.05326172 -13 3 C-8.72352613 0.14901742 -5.0682068 -0.14480591 0 0 Z " fill="#55667A" transform="translate(127,5)"/>
<path d="M0 0 C2.31 0 4.62 0 7 0 C7 0.99 7 1.98 7 3 C5.1875 3.625 5.1875 3.625 3 4 C2.01 3.34 1.02 2.68 0 2 C0 1.34 0 0.68 0 0 Z " fill="#777E88" transform="translate(189,289)"/>
<path d="M0 0 C0 0.66 0 1.32 0 2 C-0.66 2 -1.32 2 -2 2 C-2.33 2.99 -2.66 3.98 -3 5 C-4.98 5 -6.96 5 -9 5 C-8.360625 4.896875 -7.72125 4.79375 -7.0625 4.6875 C-6.381875 4.460625 -5.70125 4.23375 -5 4 C-4.67 3.01 -4.34 2.02 -4 1 C-2 0 -2 0 0 0 Z " fill="#576776" transform="translate(278,232)"/>
<path d="M0 0 C0.33 0.99 0.66 1.98 1 3 C1.66 3.33 2.32 3.66 3 4 C0.03 6.475 0.03 6.475 -3 9 C-2.01 6.03 -1.02 3.06 0 0 Z " fill="#576C83" transform="translate(20,84)"/>
<path d="M0 0 C2.15377564 2.62198774 3.40072174 4.64404172 4 8 C2.68 7.67 1.36 7.34 0 7 C-1.125 2.25 -1.125 2.25 0 0 Z " fill="#4E657C" transform="translate(283,80)"/>
<path d="M0 0 C0.33 0.66 0.66 1.32 1 2 C-0.98 3.32 -2.96 4.64 -5 6 C-5 4.35 -5 2.7 -5 1 C-3.35 0.67 -1.7 0.34 0 0 Z " fill="#53677D" transform="translate(244,273)"/>
<path d="M0 0 C0.66 0 1.32 0 2 0 C1.43628586 3.26954202 0.50037734 4.82575883 -2 7 C-2.125 4.625 -2.125 4.625 -2 2 C-1.34 1.34 -0.68 0.68 0 0 Z " fill="#47677D" transform="translate(280,225)"/>
<path d="M0 0 C0.66 0.33 1.32 0.66 2 1 C1.34 2.65 0.68 4.3 0 6 C-1.32 5.67 -2.64 5.34 -4 5 C-2.25 1.125 -2.25 1.125 0 0 Z " fill="#37516F" transform="translate(92,15)"/>
</svg>
